<svg fill="none" height="45" viewBox="0 0 46 45" width="46" xmlns="http://www.w3.org/2000/svg" xmlns:xlink="http://www.w3.org/1999/xlink"><linearGradient id="a" gradientUnits="userSpaceOnUse" x1=".5" x2="52.5981" y1="42.907" y2="28.9155"><stop offset="0" stop-color="#00288e"/><stop offset=".0989583" stop-color="#00288e"/><stop offset=".427083" stop-color="#6e1c5e"/><stop offset=".875" stop-color="#dd031f"/><stop offset="1" stop-color="#ff102c"/></linearGradient><g clip-rule="evenodd" fill="url(#a)" fill-rule="evenodd"><path d="m7.12972 22.5739c0-4.3789 1.60536-8.2545 4.61848-11.3947 3.0355-3.07027 7.0057-4.65574 11.2626-4.65574.5147 0 .9515.00839 1.469.08389 3.6976.26844 7.117 1.97415 9.7323 4.57185 6.2183 6.2636 6.2183 16.3133 0 22.5937-2.9742 3.1122-7.0141 4.6529-11.2013 4.6529-4.2569 0-8.2271-1.5407-11.2626-4.6529-3.01312-3.02-4.61848-7.0577-4.61848-11.199zm12.82058-3.1625c-2.4623 2.2929-5.4504 3.9399-8.7668 4.5243.1947 1.9993.9348 3.8644 2.1117 5.4359l16.5154-16.7104c-1.6082-1.0178-3.4333-1.6917-5.481-1.9937-.4758 3.2297-2.0339 6.2776-4.3793 8.7439zm.1669-8.4391c-2.0338.3999-3.9674 1.5323-5.5366 3.1066-1.547 1.5967-2.6265 3.5596-3.1662 5.5646 2.1757-.5257 4.0398-1.5408 5.6563-3.1318 1.5052-1.5771 2.6125-3.4338 3.0465-5.5394zm12.5813 4.6921-16.5627 16.4447c1.6026 1.1744 3.3666 2.0748 5.3503 2.2454.5064-3.3779 2.1117-6.5236 4.4599-9.0514 2.4512-2.4188 5.5061-3.8896 8.7474-4.4796-.2031-1.8092-.8569-3.6603-1.9949-5.1591zm1.8864 9.4681c-2.1813.3579-4.14 1.5072-5.7453 3.0563-1.6416 1.6358-2.7016 3.7553-3.194 6.0343 2.1228-.5453 4.1316-1.7113 5.7091-3.2521 1.636-1.7141 2.7767-3.7329 3.2302-5.8385z"/><path d="m.5 22.5741c0-6.1154 2.39829-11.6911 6.66347-16.05046 4.17893-4.26148 9.81573-6.52364 15.84763-6.52364 5.9874 0 11.6437 2.26216 15.8533 6.52364 4.3013 4.35936 6.6356 9.93506 6.6356 16.05046 0 6.0007-2.3343 11.7079-6.6356 15.8351-4.2096 4.2951-9.8659 6.5908-15.8533 6.5908-6.0319 0-11.6687-2.2957-15.84763-6.5908-4.26518-4.1272-6.66347-9.8344-6.66347-15.8351zm4.05929 0c0 4.8403 1.94479 9.4625 5.43929 13.0725 3.41942 3.4785 8.08242 5.3771 13.01252 5.3771 4.8968 0 9.5431-1.8986 13.0515-5.3771 3.4055-3.61 5.367-8.2322 5.367-13.0725 0-4.9717-1.9615-9.6023-5.367-13.16194-3.5084-3.49251-8.1547-5.39675-13.0515-5.39675-4.9301 0-9.5931 1.90424-13.01252 5.39675-3.4945 3.55964-5.43929 8.19024-5.43929 13.16194z"/></g></svg>